<mxfile host="app.diagrams.net" agent="Mozilla/5.0 (Windows NT 10.0; Win64; x64) AppleWebKit/537.36 (KHTML, like Gecko) Chrome/139.0.0.0 Safari/537.36" version="28.1.0">
  <diagram name="Page-1" id="TU_2PCAHVY31h2tD_xfr">
    <mxGraphModel dx="946" dy="615" grid="1" gridSize="10" guides="1" tooltips="1" connect="1" arrows="1" fold="1" page="1" pageScale="1" pageWidth="850" pageHeight="1100" math="0" shadow="0">
      <root>
        <mxCell id="0" />
        <mxCell id="1" parent="0" />
        <mxCell id="fJ8ehgVPhisw37L7Fhzv-15" style="edgeStyle=orthogonalEdgeStyle;rounded=0;orthogonalLoop=1;jettySize=auto;html=1;" edge="1" parent="1" source="fJ8ehgVPhisw37L7Fhzv-1">
          <mxGeometry relative="1" as="geometry">
            <mxPoint x="580" y="200" as="targetPoint" />
            <Array as="points">
              <mxPoint x="580" y="180" />
            </Array>
          </mxGeometry>
        </mxCell>
        <mxCell id="fJ8ehgVPhisw37L7Fhzv-1" value="1. Requirement Planning" style="ellipse;whiteSpace=wrap;html=1;" vertex="1" parent="1">
          <mxGeometry x="400" y="140" width="120" height="80" as="geometry" />
        </mxCell>
        <mxCell id="fJ8ehgVPhisw37L7Fhzv-16" value="" style="edgeStyle=orthogonalEdgeStyle;rounded=0;orthogonalLoop=1;jettySize=auto;html=1;" edge="1" parent="1" source="fJ8ehgVPhisw37L7Fhzv-2" target="fJ8ehgVPhisw37L7Fhzv-4">
          <mxGeometry relative="1" as="geometry" />
        </mxCell>
        <mxCell id="fJ8ehgVPhisw37L7Fhzv-2" value="2. Rapid Prototyping" style="ellipse;whiteSpace=wrap;html=1;" vertex="1" parent="1">
          <mxGeometry x="520" y="210" width="120" height="80" as="geometry" />
        </mxCell>
        <mxCell id="fJ8ehgVPhisw37L7Fhzv-4" value="3. Incremental Feature Development" style="ellipse;whiteSpace=wrap;html=1;" vertex="1" parent="1">
          <mxGeometry x="520" y="310" width="120" height="80" as="geometry" />
        </mxCell>
        <mxCell id="fJ8ehgVPhisw37L7Fhzv-18" style="edgeStyle=orthogonalEdgeStyle;rounded=0;orthogonalLoop=1;jettySize=auto;html=1;entryX=0.5;entryY=1;entryDx=0;entryDy=0;" edge="1" parent="1" source="fJ8ehgVPhisw37L7Fhzv-6" target="fJ8ehgVPhisw37L7Fhzv-7">
          <mxGeometry relative="1" as="geometry">
            <Array as="points">
              <mxPoint x="340" y="420" />
            </Array>
          </mxGeometry>
        </mxCell>
        <mxCell id="fJ8ehgVPhisw37L7Fhzv-6" value="4. Testing and Feedback" style="ellipse;whiteSpace=wrap;html=1;rotation=1;" vertex="1" parent="1">
          <mxGeometry x="400" y="380" width="120" height="80" as="geometry" />
        </mxCell>
        <mxCell id="fJ8ehgVPhisw37L7Fhzv-19" style="edgeStyle=orthogonalEdgeStyle;rounded=0;orthogonalLoop=1;jettySize=auto;html=1;entryX=0.5;entryY=1;entryDx=0;entryDy=0;" edge="1" parent="1" source="fJ8ehgVPhisw37L7Fhzv-7" target="fJ8ehgVPhisw37L7Fhzv-8">
          <mxGeometry relative="1" as="geometry" />
        </mxCell>
        <mxCell id="fJ8ehgVPhisw37L7Fhzv-7" value="5. Integration and Optimization" style="ellipse;whiteSpace=wrap;html=1;" vertex="1" parent="1">
          <mxGeometry x="280" y="310" width="120" height="80" as="geometry" />
        </mxCell>
        <mxCell id="fJ8ehgVPhisw37L7Fhzv-20" style="edgeStyle=orthogonalEdgeStyle;rounded=0;orthogonalLoop=1;jettySize=auto;html=1;entryX=0;entryY=0.5;entryDx=0;entryDy=0;" edge="1" parent="1" source="fJ8ehgVPhisw37L7Fhzv-8" target="fJ8ehgVPhisw37L7Fhzv-1">
          <mxGeometry relative="1" as="geometry" />
        </mxCell>
        <mxCell id="fJ8ehgVPhisw37L7Fhzv-8" value="6. Final Polishing and Maintenance" style="ellipse;whiteSpace=wrap;html=1;" vertex="1" parent="1">
          <mxGeometry x="280" y="210" width="120" height="80" as="geometry" />
        </mxCell>
        <mxCell id="fJ8ehgVPhisw37L7Fhzv-17" style="edgeStyle=orthogonalEdgeStyle;rounded=0;orthogonalLoop=1;jettySize=auto;html=1;" edge="1" parent="1" source="fJ8ehgVPhisw37L7Fhzv-4">
          <mxGeometry relative="1" as="geometry">
            <mxPoint x="510" y="410" as="targetPoint" />
            <Array as="points">
              <mxPoint x="580" y="410" />
              <mxPoint x="518" y="410" />
            </Array>
          </mxGeometry>
        </mxCell>
      </root>
    </mxGraphModel>
  </diagram>
</mxfile>
